# xmcd
# 
# Track frame offsets:
#     150
#     15712
#     27120
#     39095
#     53072
#     67632
#     83087
#     99652
#     111615
#     123975
#     139247
#     155132
#     170417
#     180512
#     193480
#     204577
#     215472
#     227805
#     240230
#     249787
#     263957
#     277165
#     297832
# 
# Disc length: 4200
# 
# Revision: 1
# Processed by: cddbd v1.5.2PL0 Copyright (c) Steve Scherf et al.
# Submitted via: BonkEnc v1.0
# 
DISCID=47106617
DTITLE=Nat King Cole - Nat King Cole
DYEAR=0
DGENRE=Jazz
TTITLE0=Unforgettable
TTITLE1=Love
TTITLE2=Autumn Leaves
TTITLE3=It's Only A Paper Moon
TTITLE4=Stardust
TTITLE5=Mona Lisa
TTITLE6=Route 66
TTITLE7=Love Is A Many Splendored Thing
TTITLE8=Caravan
TTITLE9=Too Young
TTITLE10=Fly Me To The Moon
TTITLE11=Embraceable You
TTITLE12=Just One Of Those Things
TTITLE13=Nature Boy
TTITLE14=Fascination
TTITLE15=St.Louise Blues
TTITLE16=Love Letters
TTITLE17=Pretend
TTITLE18=More
TTITLE19=On The Street Where You Live
TTITLE20=Tenderly
TTITLE21=Sweet Lorraine
TTITLE22=TheVery Thought Of You
EXTD=
EXTT0=
EXTT1=
EXTT2=
EXTT3=
EXTT4=
EXTT5=
EXTT6=
EXTT7=
EXTT8=
EXTT9=
EXTT10=
EXTT11=
EXTT12=
EXTT13=
EXTT14=
EXTT15=
EXTT16=
EXTT17=
EXTT18=
EXTT19=
EXTT20=
EXTT21=
EXTT22=
PLAYORDER=
